<?xml version="1.0" encoding="utf-8" standalone="no"?>
<!DOCTYPE svg PUBLIC "-//W3C//DTD SVG 1.1//EN"
  "http://www.w3.org/Graphics/SVG/1.1/DTD/svg11.dtd">
<svg xmlns:xlink="http://www.w3.org/1999/xlink" width="720pt" height="720pt" viewBox="0 0 720 720" xmlns="http://www.w3.org/2000/svg" version="1.1">
 <metadata>
  <rdf:RDF xmlns:dc="http://purl.org/dc/elements/1.1/" xmlns:cc="http://creativecommons.org/ns#" xmlns:rdf="http://www.w3.org/1999/02/22-rdf-syntax-ns#">
   <cc:Work>
    <dc:type rdf:resource="http://purl.org/dc/dcmitype/StillImage"/>
    <dc:date>2023-09-08T15:04:16.724675</dc:date>
    <dc:format>image/svg+xml</dc:format>
    <dc:creator>
     <cc:Agent>
      <dc:title>Matplotlib v3.7.2, https://matplotlib.org/</dc:title>
     </cc:Agent>
    </dc:creator>
   </cc:Work>
  </rdf:RDF>
 </metadata>
 <defs>
  <style type="text/css">*{stroke-linejoin: round; stroke-linecap: butt}</style>
 </defs>
 <g id="figure_1">
  <g id="patch_1">
   <path d="M 0 720 
L 720 720 
L 720 0 
L 0 0 
z
" style="fill: #ffffff"/>
  </g>
  <g id="axes_1">
   <g id="patch_2">
    <path d="M 69.77 540.094266 
L 709.2 540.094266 
L 709.2 34.56 
L 69.77 34.56 
z
" style="fill: #ffffff"/>
   </g>
   <g id="patch_3">
    <path d="M 75.583 540.094266 
L 122.087 540.094266 
L 122.087 233.812618 
L 75.583 233.812618 
z
" clip-path="url(#pd86a079cf7)" style="fill: #ea96a3"/>
   </g>
   <g id="patch_4">
    <path d="M 133.713 540.094266 
L 180.217 540.094266 
L 180.217 243.995793 
L 133.713 243.995793 
z
" clip-path="url(#pd86a079cf7)" style="fill: #dc924e"/>
   </g>
   <g id="patch_5">
    <path d="M 191.843 540.094266 
L 238.347 540.094266 
L 238.347 172.426886 
L 191.843 172.426886 
z
" clip-path="url(#pd86a079cf7)" style="fill: #b39d48"/>
   </g>
   <g id="patch_6">
    <path d="M 249.973 540.094266 
L 296.477 540.094266 
L 296.477 339.485431 
L 249.973 339.485431 
z
" clip-path="url(#pd86a079cf7)" style="fill: #8ea546"/>
   </g>
   <g id="patch_7">
    <path d="M 308.103 540.094266 
L 354.607 540.094266 
L 354.607 351.66057 
L 308.103 351.66057 
z
" clip-path="url(#pd86a079cf7)" style="fill: #48b067"/>
   </g>
   <g id="patch_8">
    <path d="M 366.233 540.094266 
L 412.737 540.094266 
L 412.737 220.006205 
L 366.233 220.006205 
z
" clip-path="url(#pd86a079cf7)" style="fill: #4aac98"/>
   </g>
   <g id="patch_9">
    <path d="M 424.363 540.094266 
L 470.867 540.094266 
L 470.867 266.536763 
L 424.363 266.536763 
z
" clip-path="url(#pd86a079cf7)" style="fill: #4dabb0"/>
   </g>
   <g id="patch_10">
    <path d="M 482.493 540.094266 
L 528.997 540.094266 
L 528.997 278.055892 
L 482.493 278.055892 
z
" clip-path="url(#pd86a079cf7)" style="fill: #54acd3"/>
   </g>
   <g id="patch_11">
    <path d="M 540.623 540.094266 
L 587.127 540.094266 
L 587.127 260.00389 
L 540.623 260.00389 
z
" clip-path="url(#pd86a079cf7)" style="fill: #a9aceb"/>
   </g>
   <g id="patch_12">
    <path d="M 598.753 540.094266 
L 645.257 540.094266 
L 645.257 58.63306 
L 598.753 58.63306 
z
" clip-path="url(#pd86a079cf7)" style="fill: #d795e8"/>
   </g>
   <g id="patch_13">
    <path d="M 656.883 540.094266 
L 703.387 540.094266 
L 703.387 58.63306 
L 656.883 58.63306 
z
" clip-path="url(#pd86a079cf7)" style="fill: #e88fc9"/>
   </g>
   <g id="matplotlib.axis_1">
    <g id="xtick_1">
     <g id="line2d_1">
      <defs>
       <path id="m77c5437765" d="M 0 0 
L 0 3.5 
" style="stroke: #000000; stroke-width: 0.8"/>
      </defs>
      <g>
       <use xlink:href="#m77c5437765" x="98.835" y="540.094266" style="stroke: #000000; stroke-width: 0.8"/>
      </g>
     </g>
     <g id="text_1">
      <!-- Die Mitte -->
      <g transform="translate(65.396583 584.435029) rotate(-45) scale(0.1 -0.1)">
       <defs>
        <path id="DejaVuSans-44" d="M 1259 4147 
L 1259 519 
L 2022 519 
Q 2988 519 3436 956 
Q 3884 1394 3884 2338 
Q 3884 3275 3436 3711 
Q 2988 4147 2022 4147 
L 1259 4147 
z
M 628 4666 
L 1925 4666 
Q 3281 4666 3915 4102 
Q 4550 3538 4550 2338 
Q 4550 1131 3912 565 
Q 3275 0 1925 0 
L 628 0 
L 628 4666 
z
" transform="scale(0.015625)"/>
        <path id="DejaVuSans-69" d="M 603 3500 
L 1178 3500 
L 1178 0 
L 603 0 
L 603 3500 
z
M 603 4863 
L 1178 4863 
L 1178 4134 
L 603 4134 
L 603 4863 
z
" transform="scale(0.015625)"/>
        <path id="DejaVuSans-65" d="M 3597 1894 
L 3597 1613 
L 953 1613 
Q 991 1019 1311 708 
Q 1631 397 2203 397 
Q 2534 397 2845 478 
Q 3156 559 3463 722 
L 3463 178 
Q 3153 47 2828 -22 
Q 2503 -91 2169 -91 
Q 1331 -91 842 396 
Q 353 884 353 1716 
Q 353 2575 817 3079 
Q 1281 3584 2069 3584 
Q 2775 3584 3186 3129 
Q 3597 2675 3597 1894 
z
M 3022 2063 
Q 3016 2534 2758 2815 
Q 2500 3097 2075 3097 
Q 1594 3097 1305 2825 
Q 1016 2553 972 2059 
L 3022 2063 
z
" transform="scale(0.015625)"/>
        <path id="DejaVuSans-20" transform="scale(0.015625)"/>
        <path id="DejaVuSans-4d" d="M 628 4666 
L 1569 4666 
L 2759 1491 
L 3956 4666 
L 4897 4666 
L 4897 0 
L 4281 0 
L 4281 4097 
L 3078 897 
L 2444 897 
L 1241 4097 
L 1241 0 
L 628 0 
L 628 4666 
z
" transform="scale(0.015625)"/>
        <path id="DejaVuSans-74" d="M 1172 4494 
L 1172 3500 
L 2356 3500 
L 2356 3053 
L 1172 3053 
L 1172 1153 
Q 1172 725 1289 603 
Q 1406 481 1766 481 
L 2356 481 
L 2356 0 
L 1766 0 
Q 1100 0 847 248 
Q 594 497 594 1153 
L 594 3053 
L 172 3053 
L 172 3500 
L 594 3500 
L 594 4494 
L 1172 4494 
z
" transform="scale(0.015625)"/>
       </defs>
       <use xlink:href="#DejaVuSans-44"/>
       <use xlink:href="#DejaVuSans-69" x="77.001953"/>
       <use xlink:href="#DejaVuSans-65" x="104.785156"/>
       <use xlink:href="#DejaVuSans-20" x="166.308594"/>
       <use xlink:href="#DejaVuSans-4d" x="198.095703"/>
       <use xlink:href="#DejaVuSans-69" x="284.375"/>
       <use xlink:href="#DejaVuSans-74" x="312.158203"/>
       <use xlink:href="#DejaVuSans-74" x="351.367188"/>
       <use xlink:href="#DejaVuSans-65" x="390.576172"/>
      </g>
     </g>
    </g>
    <g id="xtick_2">
     <g id="line2d_2">
      <g>
       <use xlink:href="#m77c5437765" x="156.965" y="540.094266" style="stroke: #000000; stroke-width: 0.8"/>
      </g>
     </g>
     <g id="text_2">
      <!-- Schweizerische Volkspartei -->
      <g transform="translate(59.778697 648.182915) rotate(-45) scale(0.1 -0.1)">
       <defs>
        <path id="DejaVuSans-53" d="M 3425 4513 
L 3425 3897 
Q 3066 4069 2747 4153 
Q 2428 4238 2131 4238 
Q 1616 4238 1336 4038 
Q 1056 3838 1056 3469 
Q 1056 3159 1242 3001 
Q 1428 2844 1947 2747 
L 2328 2669 
Q 3034 2534 3370 2195 
Q 3706 1856 3706 1288 
Q 3706 609 3251 259 
Q 2797 -91 1919 -91 
Q 1588 -91 1214 -16 
Q 841 59 441 206 
L 441 856 
Q 825 641 1194 531 
Q 1563 422 1919 422 
Q 2459 422 2753 634 
Q 3047 847 3047 1241 
Q 3047 1584 2836 1778 
Q 2625 1972 2144 2069 
L 1759 2144 
Q 1053 2284 737 2584 
Q 422 2884 422 3419 
Q 422 4038 858 4394 
Q 1294 4750 2059 4750 
Q 2388 4750 2728 4690 
Q 3069 4631 3425 4513 
z
" transform="scale(0.015625)"/>
        <path id="DejaVuSans-63" d="M 3122 3366 
L 3122 2828 
Q 2878 2963 2633 3030 
Q 2388 3097 2138 3097 
Q 1578 3097 1268 2742 
Q 959 2388 959 1747 
Q 959 1106 1268 751 
Q 1578 397 2138 397 
Q 2388 397 2633 464 
Q 2878 531 3122 666 
L 3122 134 
Q 2881 22 2623 -34 
Q 2366 -91 2075 -91 
Q 1284 -91 818 406 
Q 353 903 353 1747 
Q 353 2603 823 3093 
Q 1294 3584 2113 3584 
Q 2378 3584 2631 3529 
Q 2884 3475 3122 3366 
z
" transform="scale(0.015625)"/>
        <path id="DejaVuSans-68" d="M 3513 2113 
L 3513 0 
L 2938 0 
L 2938 2094 
Q 2938 2591 2744 2837 
Q 2550 3084 2163 3084 
Q 1697 3084 1428 2787 
Q 1159 2491 1159 1978 
L 1159 0 
L 581 0 
L 581 4863 
L 1159 4863 
L 1159 2956 
Q 1366 3272 1645 3428 
Q 1925 3584 2291 3584 
Q 2894 3584 3203 3211 
Q 3513 2838 3513 2113 
z
" transform="scale(0.015625)"/>
        <path id="DejaVuSans-77" d="M 269 3500 
L 844 3500 
L 1563 769 
L 2278 3500 
L 2956 3500 
L 3675 769 
L 4391 3500 
L 4966 3500 
L 4050 0 
L 3372 0 
L 2619 2869 
L 1863 0 
L 1184 0 
L 269 3500 
z
" transform="scale(0.015625)"/>
        <path id="DejaVuSans-7a" d="M 353 3500 
L 3084 3500 
L 3084 2975 
L 922 459 
L 3084 459 
L 3084 0 
L 275 0 
L 275 525 
L 2438 3041 
L 353 3041 
L 353 3500 
z
" transform="scale(0.015625)"/>
        <path id="DejaVuSans-72" d="M 2631 2963 
Q 2534 3019 2420 3045 
Q 2306 3072 2169 3072 
Q 1681 3072 1420 2755 
Q 1159 2438 1159 1844 
L 1159 0 
L 581 0 
L 581 3500 
L 1159 3500 
L 1159 2956 
Q 1341 3275 1631 3429 
Q 1922 3584 2338 3584 
Q 2397 3584 2469 3576 
Q 2541 3569 2628 3553 
L 2631 2963 
z
" transform="scale(0.015625)"/>
        <path id="DejaVuSans-73" d="M 2834 3397 
L 2834 2853 
Q 2591 2978 2328 3040 
Q 2066 3103 1784 3103 
Q 1356 3103 1142 2972 
Q 928 2841 928 2578 
Q 928 2378 1081 2264 
Q 1234 2150 1697 2047 
L 1894 2003 
Q 2506 1872 2764 1633 
Q 3022 1394 3022 966 
Q 3022 478 2636 193 
Q 2250 -91 1575 -91 
Q 1294 -91 989 -36 
Q 684 19 347 128 
L 347 722 
Q 666 556 975 473 
Q 1284 391 1588 391 
Q 1994 391 2212 530 
Q 2431 669 2431 922 
Q 2431 1156 2273 1281 
Q 2116 1406 1581 1522 
L 1381 1569 
Q 847 1681 609 1914 
Q 372 2147 372 2553 
Q 372 3047 722 3315 
Q 1072 3584 1716 3584 
Q 2034 3584 2315 3537 
Q 2597 3491 2834 3397 
z
" transform="scale(0.015625)"/>
        <path id="DejaVuSans-56" d="M 1831 0 
L 50 4666 
L 709 4666 
L 2188 738 
L 3669 4666 
L 4325 4666 
L 2547 0 
L 1831 0 
z
" transform="scale(0.015625)"/>
        <path id="DejaVuSans-6f" d="M 1959 3097 
Q 1497 3097 1228 2736 
Q 959 2375 959 1747 
Q 959 1119 1226 758 
Q 1494 397 1959 397 
Q 2419 397 2687 759 
Q 2956 1122 2956 1747 
Q 2956 2369 2687 2733 
Q 2419 3097 1959 3097 
z
M 1959 3584 
Q 2709 3584 3137 3096 
Q 3566 2609 3566 1747 
Q 3566 888 3137 398 
Q 2709 -91 1959 -91 
Q 1206 -91 779 398 
Q 353 888 353 1747 
Q 353 2609 779 3096 
Q 1206 3584 1959 3584 
z
" transform="scale(0.015625)"/>
        <path id="DejaVuSans-6c" d="M 603 4863 
L 1178 4863 
L 1178 0 
L 603 0 
L 603 4863 
z
" transform="scale(0.015625)"/>
        <path id="DejaVuSans-6b" d="M 581 4863 
L 1159 4863 
L 1159 1991 
L 2875 3500 
L 3609 3500 
L 1753 1863 
L 3688 0 
L 2938 0 
L 1159 1709 
L 1159 0 
L 581 0 
L 581 4863 
z
" transform="scale(0.015625)"/>
        <path id="DejaVuSans-70" d="M 1159 525 
L 1159 -1331 
L 581 -1331 
L 581 3500 
L 1159 3500 
L 1159 2969 
Q 1341 3281 1617 3432 
Q 1894 3584 2278 3584 
Q 2916 3584 3314 3078 
Q 3713 2572 3713 1747 
Q 3713 922 3314 415 
Q 2916 -91 2278 -91 
Q 1894 -91 1617 61 
Q 1341 213 1159 525 
z
M 3116 1747 
Q 3116 2381 2855 2742 
Q 2594 3103 2138 3103 
Q 1681 3103 1420 2742 
Q 1159 2381 1159 1747 
Q 1159 1113 1420 752 
Q 1681 391 2138 391 
Q 2594 391 2855 752 
Q 3116 1113 3116 1747 
z
" transform="scale(0.015625)"/>
        <path id="DejaVuSans-61" d="M 2194 1759 
Q 1497 1759 1228 1600 
Q 959 1441 959 1056 
Q 959 750 1161 570 
Q 1363 391 1709 391 
Q 2188 391 2477 730 
Q 2766 1069 2766 1631 
L 2766 1759 
L 2194 1759 
z
M 3341 1997 
L 3341 0 
L 2766 0 
L 2766 531 
Q 2569 213 2275 61 
Q 1981 -91 1556 -91 
Q 1019 -91 701 211 
Q 384 513 384 1019 
Q 384 1609 779 1909 
Q 1175 2209 1959 2209 
L 2766 2209 
L 2766 2266 
Q 2766 2663 2505 2880 
Q 2244 3097 1772 3097 
Q 1472 3097 1187 3025 
Q 903 2953 641 2809 
L 641 3341 
Q 956 3463 1253 3523 
Q 1550 3584 1831 3584 
Q 2591 3584 2966 3190 
Q 3341 2797 3341 1997 
z
" transform="scale(0.015625)"/>
       </defs>
       <use xlink:href="#DejaVuSans-53"/>
       <use xlink:href="#DejaVuSans-63" x="63.476562"/>
       <use xlink:href="#DejaVuSans-68" x="118.457031"/>
       <use xlink:href="#DejaVuSans-77" x="181.835938"/>
       <use xlink:href="#DejaVuSans-65" x="263.623047"/>
       <use xlink:href="#DejaVuSans-69" x="325.146484"/>
       <use xlink:href="#DejaVuSans-7a" x="352.929688"/>
       <use xlink:href="#DejaVuSans-65" x="405.419922"/>
       <use xlink:href="#DejaVuSans-72" x="466.943359"/>
       <use xlink:href="#DejaVuSans-69" x="508.056641"/>
       <use xlink:href="#DejaVuSans-73" x="535.839844"/>
       <use xlink:href="#DejaVuSans-63" x="587.939453"/>
       <use xlink:href="#DejaVuSans-68" x="642.919922"/>
       <use xlink:href="#DejaVuSans-65" x="706.298828"/>
       <use xlink:href="#DejaVuSans-20" x="767.822266"/>
       <use xlink:href="#DejaVuSans-56" x="799.609375"/>
       <use xlink:href="#DejaVuSans-6f" x="860.267578"/>
       <use xlink:href="#DejaVuSans-6c" x="921.449219"/>
       <use xlink:href="#DejaVuSans-6b" x="949.232422"/>
       <use xlink:href="#DejaVuSans-73" x="1007.142578"/>
       <use xlink:href="#DejaVuSans-70" x="1059.242188"/>
       <use xlink:href="#DejaVuSans-61" x="1122.71875"/>
       <use xlink:href="#DejaVuSans-72" x="1183.998047"/>
       <use xlink:href="#DejaVuSans-74" x="1225.111328"/>
       <use xlink:href="#DejaVuSans-65" x="1264.320312"/>
       <use xlink:href="#DejaVuSans-69" x="1325.84375"/>
      </g>
     </g>
    </g>
    <g id="xtick_3">
     <g id="line2d_3">
      <g>
       <use xlink:href="#m77c5437765" x="215.095" y="540.094266" style="stroke: #000000; stroke-width: 0.8"/>
      </g>
     </g>
     <g id="text_3">
      <!-- FDP.Die Liberalen -->
      <g transform="translate(151.918324 614.173288) rotate(-45) scale(0.1 -0.1)">
       <defs>
        <path id="DejaVuSans-46" d="M 628 4666 
L 3309 4666 
L 3309 4134 
L 1259 4134 
L 1259 2759 
L 3109 2759 
L 3109 2228 
L 1259 2228 
L 1259 0 
L 628 0 
L 628 4666 
z
" transform="scale(0.015625)"/>
        <path id="DejaVuSans-50" d="M 1259 4147 
L 1259 2394 
L 2053 2394 
Q 2494 2394 2734 2622 
Q 2975 2850 2975 3272 
Q 2975 3691 2734 3919 
Q 2494 4147 2053 4147 
L 1259 4147 
z
M 628 4666 
L 2053 4666 
Q 2838 4666 3239 4311 
Q 3641 3956 3641 3272 
Q 3641 2581 3239 2228 
Q 2838 1875 2053 1875 
L 1259 1875 
L 1259 0 
L 628 0 
L 628 4666 
z
" transform="scale(0.015625)"/>
        <path id="DejaVuSans-2e" d="M 684 794 
L 1344 794 
L 1344 0 
L 684 0 
L 684 794 
z
" transform="scale(0.015625)"/>
        <path id="DejaVuSans-4c" d="M 628 4666 
L 1259 4666 
L 1259 531 
L 3531 531 
L 3531 0 
L 628 0 
L 628 4666 
z
" transform="scale(0.015625)"/>
        <path id="DejaVuSans-62" d="M 3116 1747 
Q 3116 2381 2855 2742 
Q 2594 3103 2138 3103 
Q 1681 3103 1420 2742 
Q 1159 2381 1159 1747 
Q 1159 1113 1420 752 
Q 1681 391 2138 391 
Q 2594 391 2855 752 
Q 3116 1113 3116 1747 
z
M 1159 2969 
Q 1341 3281 1617 3432 
Q 1894 3584 2278 3584 
Q 2916 3584 3314 3078 
Q 3713 2572 3713 1747 
Q 3713 922 3314 415 
Q 2916 -91 2278 -91 
Q 1894 -91 1617 61 
Q 1341 213 1159 525 
L 1159 0 
L 581 0 
L 581 4863 
L 1159 4863 
L 1159 2969 
z
" transform="scale(0.015625)"/>
        <path id="DejaVuSans-6e" d="M 3513 2113 
L 3513 0 
L 2938 0 
L 2938 2094 
Q 2938 2591 2744 2837 
Q 2550 3084 2163 3084 
Q 1697 3084 1428 2787 
Q 1159 2491 1159 1978 
L 1159 0 
L 581 0 
L 581 3500 
L 1159 3500 
L 1159 2956 
Q 1366 3272 1645 3428 
Q 1925 3584 2291 3584 
Q 2894 3584 3203 3211 
Q 3513 2838 3513 2113 
z
" transform="scale(0.015625)"/>
       </defs>
       <use xlink:href="#DejaVuSans-46"/>
       <use xlink:href="#DejaVuSans-44" x="57.519531"/>
       <use xlink:href="#DejaVuSans-50" x="134.521484"/>
       <use xlink:href="#DejaVuSans-2e" x="179.199219"/>
       <use xlink:href="#DejaVuSans-44" x="210.986328"/>
       <use xlink:href="#DejaVuSans-69" x="287.988281"/>
       <use xlink:href="#DejaVuSans-65" x="315.771484"/>
       <use xlink:href="#DejaVuSans-20" x="377.294922"/>
       <use xlink:href="#DejaVuSans-4c" x="409.082031"/>
       <use xlink:href="#DejaVuSans-69" x="464.794922"/>
       <use xlink:href="#DejaVuSans-62" x="492.578125"/>
       <use xlink:href="#DejaVuSans-65" x="556.054688"/>
       <use xlink:href="#DejaVuSans-72" x="617.578125"/>
       <use xlink:href="#DejaVuSans-61" x="658.691406"/>
       <use xlink:href="#DejaVuSans-6c" x="719.970703"/>
       <use xlink:href="#DejaVuSans-65" x="747.753906"/>
       <use xlink:href="#DejaVuSans-6e" x="809.277344"/>
      </g>
     </g>
    </g>
    <g id="xtick_4">
     <g id="line2d_4">
      <g>
       <use xlink:href="#m77c5437765" x="273.225" y="540.094266" style="stroke: #000000; stroke-width: 0.8"/>
      </g>
     </g>
     <g id="text_4">
      <!-- Eidgenössisch-Demokratische Union -->
      <g transform="translate(143.088626 681.132986) rotate(-45) scale(0.1 -0.1)">
       <defs>
        <path id="DejaVuSans-45" d="M 628 4666 
L 3578 4666 
L 3578 4134 
L 1259 4134 
L 1259 2753 
L 3481 2753 
L 3481 2222 
L 1259 2222 
L 1259 531 
L 3634 531 
L 3634 0 
L 628 0 
L 628 4666 
z
" transform="scale(0.015625)"/>
        <path id="DejaVuSans-64" d="M 2906 2969 
L 2906 4863 
L 3481 4863 
L 3481 0 
L 2906 0 
L 2906 525 
Q 2725 213 2448 61 
Q 2172 -91 1784 -91 
Q 1150 -91 751 415 
Q 353 922 353 1747 
Q 353 2572 751 3078 
Q 1150 3584 1784 3584 
Q 2172 3584 2448 3432 
Q 2725 3281 2906 2969 
z
M 947 1747 
Q 947 1113 1208 752 
Q 1469 391 1925 391 
Q 2381 391 2643 752 
Q 2906 1113 2906 1747 
Q 2906 2381 2643 2742 
Q 2381 3103 1925 3103 
Q 1469 3103 1208 2742 
Q 947 2381 947 1747 
z
" transform="scale(0.015625)"/>
        <path id="DejaVuSans-67" d="M 2906 1791 
Q 2906 2416 2648 2759 
Q 2391 3103 1925 3103 
Q 1463 3103 1205 2759 
Q 947 2416 947 1791 
Q 947 1169 1205 825 
Q 1463 481 1925 481 
Q 2391 481 2648 825 
Q 2906 1169 2906 1791 
z
M 3481 434 
Q 3481 -459 3084 -895 
Q 2688 -1331 1869 -1331 
Q 1566 -1331 1297 -1286 
Q 1028 -1241 775 -1147 
L 775 -588 
Q 1028 -725 1275 -790 
Q 1522 -856 1778 -856 
Q 2344 -856 2625 -561 
Q 2906 -266 2906 331 
L 2906 616 
Q 2728 306 2450 153 
Q 2172 0 1784 0 
Q 1141 0 747 490 
Q 353 981 353 1791 
Q 353 2603 747 3093 
Q 1141 3584 1784 3584 
Q 2172 3584 2450 3431 
Q 2728 3278 2906 2969 
L 2906 3500 
L 3481 3500 
L 3481 434 
z
" transform="scale(0.015625)"/>
        <path id="DejaVuSans-f6" d="M 1959 3097 
Q 1497 3097 1228 2736 
Q 959 2375 959 1747 
Q 959 1119 1226 758 
Q 1494 397 1959 397 
Q 2419 397 2687 759 
Q 2956 1122 2956 1747 
Q 2956 2369 2687 2733 
Q 2419 3097 1959 3097 
z
M 1959 3584 
Q 2709 3584 3137 3096 
Q 3566 2609 3566 1747 
Q 3566 888 3137 398 
Q 2709 -91 1959 -91 
Q 1206 -91 779 398 
Q 353 888 353 1747 
Q 353 2609 779 3096 
Q 1206 3584 1959 3584 
z
M 2254 4850 
L 2888 4850 
L 2888 4219 
L 2254 4219 
L 2254 4850 
z
M 1032 4850 
L 1666 4850 
L 1666 4219 
L 1032 4219 
L 1032 4850 
z
" transform="scale(0.015625)"/>
        <path id="DejaVuSans-2d" d="M 313 2009 
L 1997 2009 
L 1997 1497 
L 313 1497 
L 313 2009 
z
" transform="scale(0.015625)"/>
        <path id="DejaVuSans-6d" d="M 3328 2828 
Q 3544 3216 3844 3400 
Q 4144 3584 4550 3584 
Q 5097 3584 5394 3201 
Q 5691 2819 5691 2113 
L 5691 0 
L 5113 0 
L 5113 2094 
Q 5113 2597 4934 2840 
Q 4756 3084 4391 3084 
Q 3944 3084 3684 2787 
Q 3425 2491 3425 1978 
L 3425 0 
L 2847 0 
L 2847 2094 
Q 2847 2600 2669 2842 
Q 2491 3084 2119 3084 
Q 1678 3084 1418 2786 
Q 1159 2488 1159 1978 
L 1159 0 
L 581 0 
L 581 3500 
L 1159 3500 
L 1159 2956 
Q 1356 3278 1631 3431 
Q 1906 3584 2284 3584 
Q 2666 3584 2933 3390 
Q 3200 3197 3328 2828 
z
" transform="scale(0.015625)"/>
        <path id="DejaVuSans-55" d="M 556 4666 
L 1191 4666 
L 1191 1831 
Q 1191 1081 1462 751 
Q 1734 422 2344 422 
Q 2950 422 3222 751 
Q 3494 1081 3494 1831 
L 3494 4666 
L 4128 4666 
L 4128 1753 
Q 4128 841 3676 375 
Q 3225 -91 2344 -91 
Q 1459 -91 1007 375 
Q 556 841 556 1753 
L 556 4666 
z
" transform="scale(0.015625)"/>
       </defs>
       <use xlink:href="#DejaVuSans-45"/>
       <use xlink:href="#DejaVuSans-69" x="63.183594"/>
       <use xlink:href="#DejaVuSans-64" x="90.966797"/>
       <use xlink:href="#DejaVuSans-67" x="154.443359"/>
       <use xlink:href="#DejaVuSans-65" x="217.919922"/>
       <use xlink:href="#DejaVuSans-6e" x="279.443359"/>
       <use xlink:href="#DejaVuSans-f6" x="342.822266"/>
       <use xlink:href="#DejaVuSans-73" x="404.003906"/>
       <use xlink:href="#DejaVuSans-73" x="456.103516"/>
       <use xlink:href="#DejaVuSans-69" x="508.203125"/>
       <use xlink:href="#DejaVuSans-73" x="535.986328"/>
       <use xlink:href="#DejaVuSans-63" x="588.085938"/>
       <use xlink:href="#DejaVuSans-68" x="643.066406"/>
       <use xlink:href="#DejaVuSans-2d" x="706.445312"/>
       <use xlink:href="#DejaVuSans-44" x="742.529297"/>
       <use xlink:href="#DejaVuSans-65" x="819.53125"/>
       <use xlink:href="#DejaVuSans-6d" x="881.054688"/>
       <use xlink:href="#DejaVuSans-6f" x="978.466797"/>
       <use xlink:href="#DejaVuSans-6b" x="1039.648438"/>
       <use xlink:href="#DejaVuSans-72" x="1097.558594"/>
       <use xlink:href="#DejaVuSans-61" x="1138.671875"/>
       <use xlink:href="#DejaVuSans-74" x="1199.951172"/>
       <use xlink:href="#DejaVuSans-69" x="1239.160156"/>
       <use xlink:href="#DejaVuSans-73" x="1266.943359"/>
       <use xlink:href="#DejaVuSans-63" x="1319.042969"/>
       <use xlink:href="#DejaVuSans-68" x="1374.023438"/>
       <use xlink:href="#DejaVuSans-65" x="1437.402344"/>
       <use xlink:href="#DejaVuSans-20" x="1498.925781"/>
       <use xlink:href="#DejaVuSans-55" x="1530.712891"/>
       <use xlink:href="#DejaVuSans-6e" x="1603.90625"/>
       <use xlink:href="#DejaVuSans-69" x="1667.285156"/>
       <use xlink:href="#DejaVuSans-6f" x="1695.068359"/>
       <use xlink:href="#DejaVuSans-6e" x="1756.25"/>
      </g>
     </g>
    </g>
    <g id="xtick_5">
     <g id="line2d_5">
      <g>
       <use xlink:href="#m77c5437765" x="331.355" y="540.094266" style="stroke: #000000; stroke-width: 0.8"/>
      </g>
     </g>
     <g id="text_5">
      <!-- Übrige politische Parteien -->
      <g transform="translate(239.024532 644.395474) rotate(-45) scale(0.1 -0.1)">
       <defs>
        <path id="DejaVuSans-dc" d="M 556 4666 
L 1191 4666 
L 1191 1831 
Q 1191 1081 1462 751 
Q 1734 422 2344 422 
Q 2950 422 3222 751 
Q 3494 1081 3494 1831 
L 3494 4666 
L 4128 4666 
L 4128 1753 
Q 4128 841 3676 375 
Q 3225 -91 2344 -91 
Q 1459 -91 1007 375 
Q 556 841 556 1753 
L 556 4666 
z
M 2638 5830 
L 3272 5830 
L 3272 5196 
L 2638 5196 
L 2638 5830 
z
M 1416 5830 
L 2050 5830 
L 2050 5196 
L 1416 5196 
L 1416 5830 
z
" transform="scale(0.015625)"/>
       </defs>
       <use xlink:href="#DejaVuSans-dc"/>
       <use xlink:href="#DejaVuSans-62" x="73.193359"/>
       <use xlink:href="#DejaVuSans-72" x="136.669922"/>
       <use xlink:href="#DejaVuSans-69" x="177.783203"/>
       <use xlink:href="#DejaVuSans-67" x="205.566406"/>
       <use xlink:href="#DejaVuSans-65" x="269.042969"/>
       <use xlink:href="#DejaVuSans-20" x="330.566406"/>
       <use xlink:href="#DejaVuSans-70" x="362.353516"/>
       <use xlink:href="#DejaVuSans-6f" x="425.830078"/>
       <use xlink:href="#DejaVuSans-6c" x="487.011719"/>
       <use xlink:href="#DejaVuSans-69" x="514.794922"/>
       <use xlink:href="#DejaVuSans-74" x="542.578125"/>
       <use xlink:href="#DejaVuSans-69" x="581.787109"/>
       <use xlink:href="#DejaVuSans-73" x="609.570312"/>
       <use xlink:href="#DejaVuSans-63" x="661.669922"/>
       <use xlink:href="#DejaVuSans-68" x="716.650391"/>
       <use xlink:href="#DejaVuSans-65" x="780.029297"/>
       <use xlink:href="#DejaVuSans-20" x="841.552734"/>
       <use xlink:href="#DejaVuSans-50" x="873.339844"/>
       <use xlink:href="#DejaVuSans-61" x="929.142578"/>
       <use xlink:href="#DejaVuSans-72" x="990.421875"/>
       <use xlink:href="#DejaVuSans-74" x="1031.535156"/>
       <use xlink:href="#DejaVuSans-65" x="1070.744141"/>
       <use xlink:href="#DejaVuSans-69" x="1132.267578"/>
       <use xlink:href="#DejaVuSans-65" x="1160.050781"/>
       <use xlink:href="#DejaVuSans-6e" x="1221.574219"/>
      </g>
     </g>
    </g>
    <g id="xtick_6">
     <g id="line2d_6">
      <g>
       <use xlink:href="#m77c5437765" x="389.485" y="540.094266" style="stroke: #000000; stroke-width: 0.8"/>
      </g>
     </g>
     <g id="text_6">
      <!-- Sozialdemokratische Partei der Schweiz -->
      <g transform="translate(247.267044 693.214568) rotate(-45) scale(0.1 -0.1)">
       <use xlink:href="#DejaVuSans-53"/>
       <use xlink:href="#DejaVuSans-6f" x="63.476562"/>
       <use xlink:href="#DejaVuSans-7a" x="124.658203"/>
       <use xlink:href="#DejaVuSans-69" x="177.148438"/>
       <use xlink:href="#DejaVuSans-61" x="204.931641"/>
       <use xlink:href="#DejaVuSans-6c" x="266.210938"/>
       <use xlink:href="#DejaVuSans-64" x="293.994141"/>
       <use xlink:href="#DejaVuSans-65" x="357.470703"/>
       <use xlink:href="#DejaVuSans-6d" x="418.994141"/>
       <use xlink:href="#DejaVuSans-6f" x="516.40625"/>
       <use xlink:href="#DejaVuSans-6b" x="577.587891"/>
       <use xlink:href="#DejaVuSans-72" x="635.498047"/>
       <use xlink:href="#DejaVuSans-61" x="676.611328"/>
       <use xlink:href="#DejaVuSans-74" x="737.890625"/>
       <use xlink:href="#DejaVuSans-69" x="777.099609"/>
       <use xlink:href="#DejaVuSans-73" x="804.882812"/>
       <use xlink:href="#DejaVuSans-63" x="856.982422"/>
       <use xlink:href="#DejaVuSans-68" x="911.962891"/>
       <use xlink:href="#DejaVuSans-65" x="975.341797"/>
       <use xlink:href="#DejaVuSans-20" x="1036.865234"/>
       <use xlink:href="#DejaVuSans-50" x="1068.652344"/>
       <use xlink:href="#DejaVuSans-61" x="1124.455078"/>
       <use xlink:href="#DejaVuSans-72" x="1185.734375"/>
       <use xlink:href="#DejaVuSans-74" x="1226.847656"/>
       <use xlink:href="#DejaVuSans-65" x="1266.056641"/>
       <use xlink:href="#DejaVuSans-69" x="1327.580078"/>
       <use xlink:href="#DejaVuSans-20" x="1355.363281"/>
       <use xlink:href="#DejaVuSans-64" x="1387.150391"/>
       <use xlink:href="#DejaVuSans-65" x="1450.626953"/>
       <use xlink:href="#DejaVuSans-72" x="1512.150391"/>
       <use xlink:href="#DejaVuSans-20" x="1553.263672"/>
       <use xlink:href="#DejaVuSans-53" x="1585.050781"/>
       <use xlink:href="#DejaVuSans-63" x="1648.527344"/>
       <use xlink:href="#DejaVuSans-68" x="1703.507812"/>
       <use xlink:href="#DejaVuSans-77" x="1766.886719"/>
       <use xlink:href="#DejaVuSans-65" x="1848.673828"/>
       <use xlink:href="#DejaVuSans-69" x="1910.197266"/>
       <use xlink:href="#DejaVuSans-7a" x="1937.980469"/>
      </g>
     </g>
    </g>
    <g id="xtick_7">
     <g id="line2d_7">
      <g>
       <use xlink:href="#m77c5437765" x="447.615" y="540.094266" style="stroke: #000000; stroke-width: 0.8"/>
      </g>
     </g>
     <g id="text_7">
      <!-- Evangelische Volkspartei der Schweiz -->
      <g transform="translate(313.173009 685.438603) rotate(-45) scale(0.1 -0.1)">
       <defs>
        <path id="DejaVuSans-76" d="M 191 3500 
L 800 3500 
L 1894 563 
L 2988 3500 
L 3597 3500 
L 2284 0 
L 1503 0 
L 191 3500 
z
" transform="scale(0.015625)"/>
       </defs>
       <use xlink:href="#DejaVuSans-45"/>
       <use xlink:href="#DejaVuSans-76" x="63.183594"/>
       <use xlink:href="#DejaVuSans-61" x="122.363281"/>
       <use xlink:href="#DejaVuSans-6e" x="183.642578"/>
       <use xlink:href="#DejaVuSans-67" x="247.021484"/>
       <use xlink:href="#DejaVuSans-65" x="310.498047"/>
       <use xlink:href="#DejaVuSans-6c" x="372.021484"/>
       <use xlink:href="#DejaVuSans-69" x="399.804688"/>
       <use xlink:href="#DejaVuSans-73" x="427.587891"/>
       <use xlink:href="#DejaVuSans-63" x="479.6875"/>
       <use xlink:href="#DejaVuSans-68" x="534.667969"/>
       <use xlink:href="#DejaVuSans-65" x="598.046875"/>
       <use xlink:href="#DejaVuSans-20" x="659.570312"/>
       <use xlink:href="#DejaVuSans-56" x="691.357422"/>
       <use xlink:href="#DejaVuSans-6f" x="752.015625"/>
       <use xlink:href="#DejaVuSans-6c" x="813.197266"/>
       <use xlink:href="#DejaVuSans-6b" x="840.980469"/>
       <use xlink:href="#DejaVuSans-73" x="898.890625"/>
       <use xlink:href="#DejaVuSans-70" x="950.990234"/>
       <use xlink:href="#DejaVuSans-61" x="1014.466797"/>
       <use xlink:href="#DejaVuSans-72" x="1075.746094"/>
       <use xlink:href="#DejaVuSans-74" x="1116.859375"/>
       <use xlink:href="#DejaVuSans-65" x="1156.068359"/>
       <use xlink:href="#DejaVuSans-69" x="1217.591797"/>
       <use xlink:href="#DejaVuSans-20" x="1245.375"/>
       <use xlink:href="#DejaVuSans-64" x="1277.162109"/>
       <use xlink:href="#DejaVuSans-65" x="1340.638672"/>
       <use xlink:href="#DejaVuSans-72" x="1402.162109"/>
       <use xlink:href="#DejaVuSans-20" x="1443.275391"/>
       <use xlink:href="#DejaVuSans-53" x="1475.0625"/>
       <use xlink:href="#DejaVuSans-63" x="1538.539062"/>
       <use xlink:href="#DejaVuSans-68" x="1593.519531"/>
       <use xlink:href="#DejaVuSans-77" x="1656.898438"/>
       <use xlink:href="#DejaVuSans-65" x="1738.685547"/>
       <use xlink:href="#DejaVuSans-69" x="1800.208984"/>
       <use xlink:href="#DejaVuSans-7a" x="1827.992188"/>
      </g>
     </g>
    </g>
    <g id="xtick_8">
     <g id="line2d_8">
      <g>
       <use xlink:href="#m77c5437765" x="505.745" y="540.094266" style="stroke: #000000; stroke-width: 0.8"/>
      </g>
     </g>
     <g id="text_8">
      <!-- GRÜNE Schweiz -->
      <g transform="translate(448.034038 608.707574) rotate(-45) scale(0.1 -0.1)">
       <defs>
        <path id="DejaVuSans-47" d="M 3809 666 
L 3809 1919 
L 2778 1919 
L 2778 2438 
L 4434 2438 
L 4434 434 
Q 4069 175 3628 42 
Q 3188 -91 2688 -91 
Q 1594 -91 976 548 
Q 359 1188 359 2328 
Q 359 3472 976 4111 
Q 1594 4750 2688 4750 
Q 3144 4750 3555 4637 
Q 3966 4525 4313 4306 
L 4313 3634 
Q 3963 3931 3569 4081 
Q 3175 4231 2741 4231 
Q 1884 4231 1454 3753 
Q 1025 3275 1025 2328 
Q 1025 1384 1454 906 
Q 1884 428 2741 428 
Q 3075 428 3337 486 
Q 3600 544 3809 666 
z
" transform="scale(0.015625)"/>
        <path id="DejaVuSans-52" d="M 2841 2188 
Q 3044 2119 3236 1894 
Q 3428 1669 3622 1275 
L 4263 0 
L 3584 0 
L 2988 1197 
Q 2756 1666 2539 1819 
Q 2322 1972 1947 1972 
L 1259 1972 
L 1259 0 
L 628 0 
L 628 4666 
L 2053 4666 
Q 2853 4666 3247 4331 
Q 3641 3997 3641 3322 
Q 3641 2881 3436 2590 
Q 3231 2300 2841 2188 
z
M 1259 4147 
L 1259 2491 
L 2053 2491 
Q 2509 2491 2742 2702 
Q 2975 2913 2975 3322 
Q 2975 3731 2742 3939 
Q 2509 4147 2053 4147 
L 1259 4147 
z
" transform="scale(0.015625)"/>
        <path id="DejaVuSans-4e" d="M 628 4666 
L 1478 4666 
L 3547 763 
L 3547 4666 
L 4159 4666 
L 4159 0 
L 3309 0 
L 1241 3903 
L 1241 0 
L 628 0 
L 628 4666 
z
" transform="scale(0.015625)"/>
       </defs>
       <use xlink:href="#DejaVuSans-47"/>
       <use xlink:href="#DejaVuSans-52" x="77.490234"/>
       <use xlink:href="#DejaVuSans-dc" x="146.972656"/>
       <use xlink:href="#DejaVuSans-4e" x="220.166016"/>
       <use xlink:href="#DejaVuSans-45" x="294.970703"/>
       <use xlink:href="#DejaVuSans-20" x="358.154297"/>
       <use xlink:href="#DejaVuSans-53" x="389.941406"/>
       <use xlink:href="#DejaVuSans-63" x="453.417969"/>
       <use xlink:href="#DejaVuSans-68" x="508.398438"/>
       <use xlink:href="#DejaVuSans-77" x="571.777344"/>
       <use xlink:href="#DejaVuSans-65" x="653.564453"/>
       <use xlink:href="#DejaVuSans-69" x="715.087891"/>
       <use xlink:href="#DejaVuSans-7a" x="742.871094"/>
      </g>
     </g>
    </g>
    <g id="xtick_9">
     <g id="line2d_9">
      <g>
       <use xlink:href="#m77c5437765" x="563.875" y="540.094266" style="stroke: #000000; stroke-width: 0.8"/>
      </g>
     </g>
     <g id="text_9">
      <!-- Grünliberale Partei -->
      <g transform="translate(496.21151 618.660102) rotate(-45) scale(0.1 -0.1)">
       <defs>
        <path id="DejaVuSans-fc" d="M 544 1381 
L 544 3500 
L 1119 3500 
L 1119 1403 
Q 1119 906 1312 657 
Q 1506 409 1894 409 
Q 2359 409 2629 706 
Q 2900 1003 2900 1516 
L 2900 3500 
L 3475 3500 
L 3475 0 
L 2900 0 
L 2900 538 
Q 2691 219 2414 64 
Q 2138 -91 1772 -91 
Q 1169 -91 856 284 
Q 544 659 544 1381 
z
M 1991 3584 
L 1991 3584 
z
M 2278 4850 
L 2912 4850 
L 2912 4219 
L 2278 4219 
L 2278 4850 
z
M 1056 4850 
L 1690 4850 
L 1690 4219 
L 1056 4219 
L 1056 4850 
z
" transform="scale(0.015625)"/>
       </defs>
       <use xlink:href="#DejaVuSans-47"/>
       <use xlink:href="#DejaVuSans-72" x="77.490234"/>
       <use xlink:href="#DejaVuSans-fc" x="118.603516"/>
       <use xlink:href="#DejaVuSans-6e" x="181.982422"/>
       <use xlink:href="#DejaVuSans-6c" x="245.361328"/>
       <use xlink:href="#DejaVuSans-69" x="273.144531"/>
       <use xlink:href="#DejaVuSans-62" x="300.927734"/>
       <use xlink:href="#DejaVuSans-65" x="364.404297"/>
       <use xlink:href="#DejaVuSans-72" x="425.927734"/>
       <use xlink:href="#DejaVuSans-61" x="467.041016"/>
       <use xlink:href="#DejaVuSans-6c" x="528.320312"/>
       <use xlink:href="#DejaVuSans-65" x="556.103516"/>
       <use xlink:href="#DejaVuSans-20" x="617.626953"/>
       <use xlink:href="#DejaVuSans-50" x="649.414062"/>
       <use xlink:href="#DejaVuSans-61" x="705.216797"/>
       <use xlink:href="#DejaVuSans-72" x="766.496094"/>
       <use xlink:href="#DejaVuSans-74" x="807.609375"/>
       <use xlink:href="#DejaVuSans-65" x="846.818359"/>
       <use xlink:href="#DejaVuSans-69" x="908.341797"/>
      </g>
     </g>
    </g>
    <g id="xtick_10">
     <g id="line2d_10">
      <g>
       <use xlink:href="#m77c5437765" x="622.005" y="540.094266" style="stroke: #000000; stroke-width: 0.8"/>
      </g>
     </g>
     <g id="text_10">
      <!-- Unabhängig -->
      <g transform="translate(577.817455 595.184157) rotate(-45) scale(0.1 -0.1)">
       <defs>
        <path id="DejaVuSans-e4" d="M 2194 1759 
Q 1497 1759 1228 1600 
Q 959 1441 959 1056 
Q 959 750 1161 570 
Q 1363 391 1709 391 
Q 2188 391 2477 730 
Q 2766 1069 2766 1631 
L 2766 1759 
L 2194 1759 
z
M 3341 1997 
L 3341 0 
L 2766 0 
L 2766 531 
Q 2569 213 2275 61 
Q 1981 -91 1556 -91 
Q 1019 -91 701 211 
Q 384 513 384 1019 
Q 384 1609 779 1909 
Q 1175 2209 1959 2209 
L 2766 2209 
L 2766 2266 
Q 2766 2663 2505 2880 
Q 2244 3097 1772 3097 
Q 1472 3097 1187 3025 
Q 903 2953 641 2809 
L 641 3341 
Q 956 3463 1253 3523 
Q 1550 3584 1831 3584 
Q 2591 3584 2966 3190 
Q 3341 2797 3341 1997 
z
M 2150 4850 
L 2784 4850 
L 2784 4219 
L 2150 4219 
L 2150 4850 
z
M 928 4850 
L 1562 4850 
L 1562 4219 
L 928 4219 
L 928 4850 
z
" transform="scale(0.015625)"/>
       </defs>
       <use xlink:href="#DejaVuSans-55"/>
       <use xlink:href="#DejaVuSans-6e" x="73.193359"/>
       <use xlink:href="#DejaVuSans-61" x="136.572266"/>
       <use xlink:href="#DejaVuSans-62" x="197.851562"/>
       <use xlink:href="#DejaVuSans-68" x="261.328125"/>
       <use xlink:href="#DejaVuSans-e4" x="324.707031"/>
       <use xlink:href="#DejaVuSans-6e" x="385.986328"/>
       <use xlink:href="#DejaVuSans-67" x="449.365234"/>
       <use xlink:href="#DejaVuSans-69" x="512.841797"/>
       <use xlink:href="#DejaVuSans-67" x="540.625"/>
      </g>
     </g>
    </g>
    <g id="xtick_11">
     <g id="line2d_11">
      <g>
       <use xlink:href="#m77c5437765" x="680.135" y="540.094266" style="stroke: #000000; stroke-width: 0.8"/>
      </g>
     </g>
     <g id="text_11">
      <!-- Lega dei Ticinesi -->
      <g transform="translate(619.981205 611.150407) rotate(-45) scale(0.1 -0.1)">
       <defs>
        <path id="DejaVuSans-54" d="M -19 4666 
L 3928 4666 
L 3928 4134 
L 2272 4134 
L 2272 0 
L 1638 0 
L 1638 4134 
L -19 4134 
L -19 4666 
z
" transform="scale(0.015625)"/>
       </defs>
       <use xlink:href="#DejaVuSans-4c"/>
       <use xlink:href="#DejaVuSans-65" x="53.962891"/>
       <use xlink:href="#DejaVuSans-67" x="115.486328"/>
       <use xlink:href="#DejaVuSans-61" x="178.962891"/>
       <use xlink:href="#DejaVuSans-20" x="240.242188"/>
       <use xlink:href="#DejaVuSans-64" x="272.029297"/>
       <use xlink:href="#DejaVuSans-65" x="335.505859"/>
       <use xlink:href="#DejaVuSans-69" x="397.029297"/>
       <use xlink:href="#DejaVuSans-20" x="424.8125"/>
       <use xlink:href="#DejaVuSans-54" x="456.599609"/>
       <use xlink:href="#DejaVuSans-69" x="514.558594"/>
       <use xlink:href="#DejaVuSans-63" x="542.341797"/>
       <use xlink:href="#DejaVuSans-69" x="597.322266"/>
       <use xlink:href="#DejaVuSans-6e" x="625.105469"/>
       <use xlink:href="#DejaVuSans-65" x="688.484375"/>
       <use xlink:href="#DejaVuSans-73" x="750.007812"/>
       <use xlink:href="#DejaVuSans-69" x="802.107422"/>
      </g>
     </g>
    </g>
    <g id="text_12">
     <!-- Parteizugehörigkeit (Mutterpartei) -->
     <g transform="translate(304.374063 706.283567) scale(0.1 -0.1)">
      <defs>
       <path id="DejaVuSans-75" d="M 544 1381 
L 544 3500 
L 1119 3500 
L 1119 1403 
Q 1119 906 1312 657 
Q 1506 409 1894 409 
Q 2359 409 2629 706 
Q 2900 1003 2900 1516 
L 2900 3500 
L 3475 3500 
L 3475 0 
L 2900 0 
L 2900 538 
Q 2691 219 2414 64 
Q 2138 -91 1772 -91 
Q 1169 -91 856 284 
Q 544 659 544 1381 
z
M 1991 3584 
L 1991 3584 
z
" transform="scale(0.015625)"/>
       <path id="DejaVuSans-28" d="M 1984 4856 
Q 1566 4138 1362 3434 
Q 1159 2731 1159 2009 
Q 1159 1288 1364 580 
Q 1569 -128 1984 -844 
L 1484 -844 
Q 1016 -109 783 600 
Q 550 1309 550 2009 
Q 550 2706 781 3412 
Q 1013 4119 1484 4856 
L 1984 4856 
z
" transform="scale(0.015625)"/>
       <path id="DejaVuSans-29" d="M 513 4856 
L 1013 4856 
Q 1481 4119 1714 3412 
Q 1947 2706 1947 2009 
Q 1947 1309 1714 600 
Q 1481 -109 1013 -844 
L 513 -844 
Q 928 -128 1133 580 
Q 1338 1288 1338 2009 
Q 1338 2731 1133 3434 
Q 928 4138 513 4856 
z
" transform="scale(0.015625)"/>
      </defs>
      <use xlink:href="#DejaVuSans-50"/>
      <use xlink:href="#DejaVuSans-61" x="55.802734"/>
      <use xlink:href="#DejaVuSans-72" x="117.082031"/>
      <use xlink:href="#DejaVuSans-74" x="158.195312"/>
      <use xlink:href="#DejaVuSans-65" x="197.404297"/>
      <use xlink:href="#DejaVuSans-69" x="258.927734"/>
      <use xlink:href="#DejaVuSans-7a" x="286.710938"/>
      <use xlink:href="#DejaVuSans-75" x="339.201172"/>
      <use xlink:href="#DejaVuSans-67" x="402.580078"/>
      <use xlink:href="#DejaVuSans-65" x="466.056641"/>
      <use xlink:href="#DejaVuSans-68" x="527.580078"/>
      <use xlink:href="#DejaVuSans-f6" x="590.958984"/>
      <use xlink:href="#DejaVuSans-72" x="652.140625"/>
      <use xlink:href="#DejaVuSans-69" x="693.253906"/>
      <use xlink:href="#DejaVuSans-67" x="721.037109"/>
      <use xlink:href="#DejaVuSans-6b" x="784.513672"/>
      <use xlink:href="#DejaVuSans-65" x="838.798828"/>
      <use xlink:href="#DejaVuSans-69" x="900.322266"/>
      <use xlink:href="#DejaVuSans-74" x="928.105469"/>
      <use xlink:href="#DejaVuSans-20" x="967.314453"/>
      <use xlink:href="#DejaVuSans-28" x="999.101562"/>
      <use xlink:href="#DejaVuSans-4d" x="1038.115234"/>
      <use xlink:href="#DejaVuSans-75" x="1124.394531"/>
      <use xlink:href="#DejaVuSans-74" x="1187.773438"/>
      <use xlink:href="#DejaVuSans-74" x="1226.982422"/>
      <use xlink:href="#DejaVuSans-65" x="1266.191406"/>
      <use xlink:href="#DejaVuSans-72" x="1327.714844"/>
      <use xlink:href="#DejaVuSans-70" x="1368.828125"/>
      <use xlink:href="#DejaVuSans-61" x="1432.304688"/>
      <use xlink:href="#DejaVuSans-72" x="1493.583984"/>
      <use xlink:href="#DejaVuSans-74" x="1534.697266"/>
      <use xlink:href="#DejaVuSans-65" x="1573.90625"/>
      <use xlink:href="#DejaVuSans-69" x="1635.429688"/>
      <use xlink:href="#DejaVuSans-29" x="1663.212891"/>
     </g>
    </g>
   </g>
   <g id="matplotlib.axis_2">
    <g id="ytick_1">
     <g id="line2d_12">
      <defs>
       <path id="m7cc801d622" d="M 0 0 
L -3.5 0 
" style="stroke: #000000; stroke-width: 0.8"/>
      </defs>
      <g>
       <use xlink:href="#m7cc801d622" x="69.77" y="540.094266" style="stroke: #000000; stroke-width: 0.8"/>
      </g>
     </g>
     <g id="text_13">
      <!-- 0 -->
      <g transform="translate(56.4075 543.893485) scale(0.1 -0.1)">
       <defs>
        <path id="DejaVuSans-30" d="M 2034 4250 
Q 1547 4250 1301 3770 
Q 1056 3291 1056 2328 
Q 1056 1369 1301 889 
Q 1547 409 2034 409 
Q 2525 409 2770 889 
Q 3016 1369 3016 2328 
Q 3016 3291 2770 3770 
Q 2525 4250 2034 4250 
z
M 2034 4750 
Q 2819 4750 3233 4129 
Q 3647 3509 3647 2328 
Q 3647 1150 3233 529 
Q 2819 -91 2034 -91 
Q 1250 -91 836 529 
Q 422 1150 422 2328 
Q 422 3509 836 4129 
Q 1250 4750 2034 4750 
z
" transform="scale(0.015625)"/>
       </defs>
       <use xlink:href="#DejaVuSans-30"/>
      </g>
     </g>
    </g>
    <g id="ytick_2">
     <g id="line2d_13">
      <g>
       <use xlink:href="#m7cc801d622" x="69.77" y="463.671853" style="stroke: #000000; stroke-width: 0.8"/>
      </g>
     </g>
     <g id="text_14">
      <!-- 50000 -->
      <g transform="translate(30.9575 467.471072) scale(0.1 -0.1)">
       <defs>
        <path id="DejaVuSans-35" d="M 691 4666 
L 3169 4666 
L 3169 4134 
L 1269 4134 
L 1269 2991 
Q 1406 3038 1543 3061 
Q 1681 3084 1819 3084 
Q 2600 3084 3056 2656 
Q 3513 2228 3513 1497 
Q 3513 744 3044 326 
Q 2575 -91 1722 -91 
Q 1428 -91 1123 -41 
Q 819 9 494 109 
L 494 744 
Q 775 591 1075 516 
Q 1375 441 1709 441 
Q 2250 441 2565 725 
Q 2881 1009 2881 1497 
Q 2881 1984 2565 2268 
Q 2250 2553 1709 2553 
Q 1456 2553 1204 2497 
Q 953 2441 691 2322 
L 691 4666 
z
" transform="scale(0.015625)"/>
       </defs>
       <use xlink:href="#DejaVuSans-35"/>
       <use xlink:href="#DejaVuSans-30" x="63.623047"/>
       <use xlink:href="#DejaVuSans-30" x="127.246094"/>
       <use xlink:href="#DejaVuSans-30" x="190.869141"/>
       <use xlink:href="#DejaVuSans-30" x="254.492188"/>
      </g>
     </g>
    </g>
    <g id="ytick_3">
     <g id="line2d_14">
      <g>
       <use xlink:href="#m7cc801d622" x="69.77" y="387.249439" style="stroke: #000000; stroke-width: 0.8"/>
      </g>
     </g>
     <g id="text_15">
      <!-- 100000 -->
      <g transform="translate(24.595 391.048658) scale(0.1 -0.1)">
       <defs>
        <path id="DejaVuSans-31" d="M 794 531 
L 1825 531 
L 1825 4091 
L 703 3866 
L 703 4441 
L 1819 4666 
L 2450 4666 
L 2450 531 
L 3481 531 
L 3481 0 
L 794 0 
L 794 531 
z
" transform="scale(0.015625)"/>
       </defs>
       <use xlink:href="#DejaVuSans-31"/>
       <use xlink:href="#DejaVuSans-30" x="63.623047"/>
       <use xlink:href="#DejaVuSans-30" x="127.246094"/>
       <use xlink:href="#DejaVuSans-30" x="190.869141"/>
       <use xlink:href="#DejaVuSans-30" x="254.492188"/>
       <use xlink:href="#DejaVuSans-30" x="318.115234"/>
      </g>
     </g>
    </g>
    <g id="ytick_4">
     <g id="line2d_15">
      <g>
       <use xlink:href="#m7cc801d622" x="69.77" y="310.827025" style="stroke: #000000; stroke-width: 0.8"/>
      </g>
     </g>
     <g id="text_16">
      <!-- 150000 -->
      <g transform="translate(24.595 314.626244) scale(0.1 -0.1)">
       <use xlink:href="#DejaVuSans-31"/>
       <use xlink:href="#DejaVuSans-35" x="63.623047"/>
       <use xlink:href="#DejaVuSans-30" x="127.246094"/>
       <use xlink:href="#DejaVuSans-30" x="190.869141"/>
       <use xlink:href="#DejaVuSans-30" x="254.492188"/>
       <use xlink:href="#DejaVuSans-30" x="318.115234"/>
      </g>
     </g>
    </g>
    <g id="ytick_5">
     <g id="line2d_16">
      <g>
       <use xlink:href="#m7cc801d622" x="69.77" y="234.404612" style="stroke: #000000; stroke-width: 0.8"/>
      </g>
     </g>
     <g id="text_17">
      <!-- 200000 -->
      <g transform="translate(24.595 238.20383) scale(0.1 -0.1)">
       <defs>
        <path id="DejaVuSans-32" d="M 1228 531 
L 3431 531 
L 3431 0 
L 469 0 
L 469 531 
Q 828 903 1448 1529 
Q 2069 2156 2228 2338 
Q 2531 2678 2651 2914 
Q 2772 3150 2772 3378 
Q 2772 3750 2511 3984 
Q 2250 4219 1831 4219 
Q 1534 4219 1204 4116 
Q 875 4013 500 3803 
L 500 4441 
Q 881 4594 1212 4672 
Q 1544 4750 1819 4750 
Q 2544 4750 2975 4387 
Q 3406 4025 3406 3419 
Q 3406 3131 3298 2873 
Q 3191 2616 2906 2266 
Q 2828 2175 2409 1742 
Q 1991 1309 1228 531 
z
" transform="scale(0.015625)"/>
       </defs>
       <use xlink:href="#DejaVuSans-32"/>
       <use xlink:href="#DejaVuSans-30" x="63.623047"/>
       <use xlink:href="#DejaVuSans-30" x="127.246094"/>
       <use xlink:href="#DejaVuSans-30" x="190.869141"/>
       <use xlink:href="#DejaVuSans-30" x="254.492188"/>
       <use xlink:href="#DejaVuSans-30" x="318.115234"/>
      </g>
     </g>
    </g>
    <g id="ytick_6">
     <g id="line2d_17">
      <g>
       <use xlink:href="#m7cc801d622" x="69.77" y="157.982198" style="stroke: #000000; stroke-width: 0.8"/>
      </g>
     </g>
     <g id="text_18">
      <!-- 250000 -->
      <g transform="translate(24.595 161.781417) scale(0.1 -0.1)">
       <use xlink:href="#DejaVuSans-32"/>
       <use xlink:href="#DejaVuSans-35" x="63.623047"/>
       <use xlink:href="#DejaVuSans-30" x="127.246094"/>
       <use xlink:href="#DejaVuSans-30" x="190.869141"/>
       <use xlink:href="#DejaVuSans-30" x="254.492188"/>
       <use xlink:href="#DejaVuSans-30" x="318.115234"/>
      </g>
     </g>
    </g>
    <g id="ytick_7">
     <g id="line2d_18">
      <g>
       <use xlink:href="#m7cc801d622" x="69.77" y="81.559784" style="stroke: #000000; stroke-width: 0.8"/>
      </g>
     </g>
     <g id="text_19">
      <!-- 300000 -->
      <g transform="translate(24.595 85.359003) scale(0.1 -0.1)">
       <defs>
        <path id="DejaVuSans-33" d="M 2597 2516 
Q 3050 2419 3304 2112 
Q 3559 1806 3559 1356 
Q 3559 666 3084 287 
Q 2609 -91 1734 -91 
Q 1441 -91 1130 -33 
Q 819 25 488 141 
L 488 750 
Q 750 597 1062 519 
Q 1375 441 1716 441 
Q 2309 441 2620 675 
Q 2931 909 2931 1356 
Q 2931 1769 2642 2001 
Q 2353 2234 1838 2234 
L 1294 2234 
L 1294 2753 
L 1863 2753 
Q 2328 2753 2575 2939 
Q 2822 3125 2822 3475 
Q 2822 3834 2567 4026 
Q 2313 4219 1838 4219 
Q 1578 4219 1281 4162 
Q 984 4106 628 3988 
L 628 4550 
Q 988 4650 1302 4700 
Q 1616 4750 1894 4750 
Q 2613 4750 3031 4423 
Q 3450 4097 3450 3541 
Q 3450 3153 3228 2886 
Q 3006 2619 2597 2516 
z
" transform="scale(0.015625)"/>
       </defs>
       <use xlink:href="#DejaVuSans-33"/>
       <use xlink:href="#DejaVuSans-30" x="63.623047"/>
       <use xlink:href="#DejaVuSans-30" x="127.246094"/>
       <use xlink:href="#DejaVuSans-30" x="190.869141"/>
       <use xlink:href="#DejaVuSans-30" x="254.492188"/>
       <use xlink:href="#DejaVuSans-30" x="318.115234"/>
      </g>
     </g>
    </g>
    <g id="text_20">
     <!-- Gesamtbetrag der Einnahmen (in CHF) -->
     <g transform="translate(18.515313 384.765414) rotate(-90) scale(0.1 -0.1)">
      <defs>
       <path id="DejaVuSans-43" d="M 4122 4306 
L 4122 3641 
Q 3803 3938 3442 4084 
Q 3081 4231 2675 4231 
Q 1875 4231 1450 3742 
Q 1025 3253 1025 2328 
Q 1025 1406 1450 917 
Q 1875 428 2675 428 
Q 3081 428 3442 575 
Q 3803 722 4122 1019 
L 4122 359 
Q 3791 134 3420 21 
Q 3050 -91 2638 -91 
Q 1578 -91 968 557 
Q 359 1206 359 2328 
Q 359 3453 968 4101 
Q 1578 4750 2638 4750 
Q 3056 4750 3426 4639 
Q 3797 4528 4122 4306 
z
" transform="scale(0.015625)"/>
       <path id="DejaVuSans-48" d="M 628 4666 
L 1259 4666 
L 1259 2753 
L 3553 2753 
L 3553 4666 
L 4184 4666 
L 4184 0 
L 3553 0 
L 3553 2222 
L 1259 2222 
L 1259 0 
L 628 0 
L 628 4666 
z
" transform="scale(0.015625)"/>
      </defs>
      <use xlink:href="#DejaVuSans-47"/>
      <use xlink:href="#DejaVuSans-65" x="77.490234"/>
      <use xlink:href="#DejaVuSans-73" x="139.013672"/>
      <use xlink:href="#DejaVuSans-61" x="191.113281"/>
      <use xlink:href="#DejaVuSans-6d" x="252.392578"/>
      <use xlink:href="#DejaVuSans-74" x="349.804688"/>
      <use xlink:href="#DejaVuSans-62" x="389.013672"/>
      <use xlink:href="#DejaVuSans-65" x="452.490234"/>
      <use xlink:href="#DejaVuSans-74" x="514.013672"/>
      <use xlink:href="#DejaVuSans-72" x="553.222656"/>
      <use xlink:href="#DejaVuSans-61" x="594.335938"/>
      <use xlink:href="#DejaVuSans-67" x="655.615234"/>
      <use xlink:href="#DejaVuSans-20" x="719.091797"/>
      <use xlink:href="#DejaVuSans-64" x="750.878906"/>
      <use xlink:href="#DejaVuSans-65" x="814.355469"/>
      <use xlink:href="#DejaVuSans-72" x="875.878906"/>
      <use xlink:href="#DejaVuSans-20" x="916.992188"/>
      <use xlink:href="#DejaVuSans-45" x="948.779297"/>
      <use xlink:href="#DejaVuSans-69" x="1011.962891"/>
      <use xlink:href="#DejaVuSans-6e" x="1039.746094"/>
      <use xlink:href="#DejaVuSans-6e" x="1103.125"/>
      <use xlink:href="#DejaVuSans-61" x="1166.503906"/>
      <use xlink:href="#DejaVuSans-68" x="1227.783203"/>
      <use xlink:href="#DejaVuSans-6d" x="1291.162109"/>
      <use xlink:href="#DejaVuSans-65" x="1388.574219"/>
      <use xlink:href="#DejaVuSans-6e" x="1450.097656"/>
      <use xlink:href="#DejaVuSans-20" x="1513.476562"/>
      <use xlink:href="#DejaVuSans-28" x="1545.263672"/>
      <use xlink:href="#DejaVuSans-69" x="1584.277344"/>
      <use xlink:href="#DejaVuSans-6e" x="1612.060547"/>
      <use xlink:href="#DejaVuSans-20" x="1675.439453"/>
      <use xlink:href="#DejaVuSans-43" x="1707.226562"/>
      <use xlink:href="#DejaVuSans-48" x="1777.050781"/>
      <use xlink:href="#DejaVuSans-46" x="1852.246094"/>
      <use xlink:href="#DejaVuSans-29" x="1909.765625"/>
     </g>
    </g>
   </g>
   <g id="line2d_19">
    <path d="M 98.835 248.968823 
L 98.835 218.180208 
" clip-path="url(#pd86a079cf7)" style="fill: none; stroke: #424242; stroke-width: 2.7; stroke-linecap: square"/>
   </g>
   <g id="line2d_20">
    <path d="M 156.965 261.495575 
L 156.965 225.704135 
" clip-path="url(#pd86a079cf7)" style="fill: none; stroke: #424242; stroke-width: 2.7; stroke-linecap: square"/>
   </g>
   <g id="line2d_21">
    <path d="M 215.095 194.694418 
L 215.095 148.57283 
" clip-path="url(#pd86a079cf7)" style="fill: none; stroke: #424242; stroke-width: 2.7; stroke-linecap: square"/>
   </g>
   <g id="line2d_22">
    <path d="M 273.225 433.102887 
L 273.225 152.250517 
" clip-path="url(#pd86a079cf7)" style="fill: none; stroke: #424242; stroke-width: 2.7; stroke-linecap: square"/>
   </g>
   <g id="line2d_23">
    <path d="M 331.355 374.472286 
L 331.355 326.313054 
" clip-path="url(#pd86a079cf7)" style="fill: none; stroke: #424242; stroke-width: 2.7; stroke-linecap: square"/>
   </g>
   <g id="line2d_24">
    <path d="M 389.485 266.330614 
L 389.485 164.936293 
" clip-path="url(#pd86a079cf7)" style="fill: none; stroke: #424242; stroke-width: 2.7; stroke-linecap: square"/>
   </g>
   <g id="line2d_25">
    <path d="M 447.615 285.330598 
L 447.615 246.909229 
" clip-path="url(#pd86a079cf7)" style="fill: none; stroke: #424242; stroke-width: 2.7; stroke-linecap: square"/>
   </g>
   <g id="line2d_26">
    <path d="M 505.745 308.64632 
L 505.745 239.821039 
" clip-path="url(#pd86a079cf7)" style="fill: none; stroke: #424242; stroke-width: 2.7; stroke-linecap: square"/>
   </g>
   <g id="line2d_27">
    <path d="M 563.875 293.935762 
L 563.875 224.708372 
" clip-path="url(#pd86a079cf7)" style="fill: none; stroke: #424242; stroke-width: 2.7; stroke-linecap: square"/>
   </g>
   <g id="line2d_28">
    <path clip-path="url(#pd86a079cf7)" style="fill: none; stroke: #424242; stroke-width: 2.7; stroke-linecap: square"/>
   </g>
   <g id="line2d_29">
    <path clip-path="url(#pd86a079cf7)" style="fill: none; stroke: #424242; stroke-width: 2.7; stroke-linecap: square"/>
   </g>
   <g id="patch_14">
    <path d="M 69.77 540.094266 
L 69.77 34.56 
" style="fill: none; stroke: #000000; stroke-width: 0.8; stroke-linejoin: miter; stroke-linecap: square"/>
   </g>
   <g id="patch_15">
    <path d="M 709.2 540.094266 
L 709.2 34.56 
" style="fill: none; stroke: #000000; stroke-width: 0.8; stroke-linejoin: miter; stroke-linecap: square"/>
   </g>
   <g id="patch_16">
    <path d="M 69.77 540.094266 
L 709.2 540.094266 
" style="fill: none; stroke: #000000; stroke-width: 0.8; stroke-linejoin: miter; stroke-linecap: square"/>
   </g>
   <g id="patch_17">
    <path d="M 69.77 34.56 
L 709.2 34.56 
" style="fill: none; stroke: #000000; stroke-width: 0.8; stroke-linejoin: miter; stroke-linecap: square"/>
   </g>
  </g>
  <g id="text_21">
   <!-- Durschnittliches gemeldetes Budget pro Partei -->
   <g transform="translate(219.859688 23.518125) scale(0.12 -0.12)">
    <defs>
     <path id="DejaVuSans-42" d="M 1259 2228 
L 1259 519 
L 2272 519 
Q 2781 519 3026 730 
Q 3272 941 3272 1375 
Q 3272 1813 3026 2020 
Q 2781 2228 2272 2228 
L 1259 2228 
z
M 1259 4147 
L 1259 2741 
L 2194 2741 
Q 2656 2741 2882 2914 
Q 3109 3088 3109 3444 
Q 3109 3797 2882 3972 
Q 2656 4147 2194 4147 
L 1259 4147 
z
M 628 4666 
L 2241 4666 
Q 2963 4666 3353 4366 
Q 3744 4066 3744 3513 
Q 3744 3084 3544 2831 
Q 3344 2578 2956 2516 
Q 3422 2416 3680 2098 
Q 3938 1781 3938 1306 
Q 3938 681 3513 340 
Q 3088 0 2303 0 
L 628 0 
L 628 4666 
z
" transform="scale(0.015625)"/>
    </defs>
    <use xlink:href="#DejaVuSans-44"/>
    <use xlink:href="#DejaVuSans-75" x="77.001953"/>
    <use xlink:href="#DejaVuSans-72" x="140.380859"/>
    <use xlink:href="#DejaVuSans-73" x="181.494141"/>
    <use xlink:href="#DejaVuSans-63" x="233.59375"/>
    <use xlink:href="#DejaVuSans-68" x="288.574219"/>
    <use xlink:href="#DejaVuSans-6e" x="351.953125"/>
    <use xlink:href="#DejaVuSans-69" x="415.332031"/>
    <use xlink:href="#DejaVuSans-74" x="443.115234"/>
    <use xlink:href="#DejaVuSans-74" x="482.324219"/>
    <use xlink:href="#DejaVuSans-6c" x="521.533203"/>
    <use xlink:href="#DejaVuSans-69" x="549.316406"/>
    <use xlink:href="#DejaVuSans-63" x="577.099609"/>
    <use xlink:href="#DejaVuSans-68" x="632.080078"/>
    <use xlink:href="#DejaVuSans-65" x="695.458984"/>
    <use xlink:href="#DejaVuSans-73" x="756.982422"/>
    <use xlink:href="#DejaVuSans-20" x="809.082031"/>
    <use xlink:href="#DejaVuSans-67" x="840.869141"/>
    <use xlink:href="#DejaVuSans-65" x="904.345703"/>
    <use xlink:href="#DejaVuSans-6d" x="965.869141"/>
    <use xlink:href="#DejaVuSans-65" x="1063.28125"/>
    <use xlink:href="#DejaVuSans-6c" x="1124.804688"/>
    <use xlink:href="#DejaVuSans-64" x="1152.587891"/>
    <use xlink:href="#DejaVuSans-65" x="1216.064453"/>
    <use xlink:href="#DejaVuSans-74" x="1277.587891"/>
    <use xlink:href="#DejaVuSans-65" x="1316.796875"/>
    <use xlink:href="#DejaVuSans-73" x="1378.320312"/>
    <use xlink:href="#DejaVuSans-20" x="1430.419922"/>
    <use xlink:href="#DejaVuSans-42" x="1462.207031"/>
    <use xlink:href="#DejaVuSans-75" x="1530.810547"/>
    <use xlink:href="#DejaVuSans-64" x="1594.189453"/>
    <use xlink:href="#DejaVuSans-67" x="1657.666016"/>
    <use xlink:href="#DejaVuSans-65" x="1721.142578"/>
    <use xlink:href="#DejaVuSans-74" x="1782.666016"/>
    <use xlink:href="#DejaVuSans-20" x="1821.875"/>
    <use xlink:href="#DejaVuSans-70" x="1853.662109"/>
    <use xlink:href="#DejaVuSans-72" x="1917.138672"/>
    <use xlink:href="#DejaVuSans-6f" x="1956.001953"/>
    <use xlink:href="#DejaVuSans-20" x="2017.183594"/>
    <use xlink:href="#DejaVuSans-50" x="2048.970703"/>
    <use xlink:href="#DejaVuSans-61" x="2104.773438"/>
    <use xlink:href="#DejaVuSans-72" x="2166.052734"/>
    <use xlink:href="#DejaVuSans-74" x="2207.166016"/>
    <use xlink:href="#DejaVuSans-65" x="2246.375"/>
    <use xlink:href="#DejaVuSans-69" x="2307.898438"/>
   </g>
  </g>
 </g>
 <defs>
  <clipPath id="pd86a079cf7">
   <rect x="69.77" y="34.56" width="639.43" height="505.534266"/>
  </clipPath>
 </defs>
</svg>
